<svg width="24" height="24" viewBox="0 0 24 24" fill="none" xmlns="http://www.w3.org/2000/svg">
<path d="M12 16C11.8022 16 11.6089 16.0586 11.4445 16.1685C11.28 16.2784 11.1518 16.4346 11.0761 16.6173C11.0005 16.8 10.9807 17.0011 11.0192 17.1951C11.0578 17.3891 11.1531 17.5673 11.2929 17.7071C11.4328 17.847 11.611 17.9422 11.8049 17.9808C11.9989 18.0194 12.2 17.9996 12.3827 17.9239C12.5654 17.8482 12.7216 17.72 12.8315 17.5556C12.9414 17.3911 13 17.1978 13 17C13 16.7348 12.8947 16.4804 12.7071 16.2929C12.5196 16.1054 12.2652 16 12 16ZM22.67 17.47L14.62 3.47C14.3598 3.00351 13.9798 2.61495 13.5192 2.34447C13.0586 2.07398 12.5342 1.93137 12 1.93137C11.4659 1.93137 10.9414 2.07398 10.4808 2.34447C10.0202 2.61495 9.64022 3.00351 9.38003 3.47L1.38003 17.47C1.11082 17.924 0.966171 18.441 0.960673 18.9688C0.955175 19.4966 1.08903 20.0165 1.34871 20.476C1.6084 20.9356 1.98473 21.3185 2.43971 21.586C2.89469 21.8536 3.41221 21.9964 3.94003 22H20.06C20.5921 22.0052 21.116 21.8689 21.5779 21.6049C22.0399 21.3409 22.4234 20.9588 22.689 20.4978C22.9546 20.0368 23.0929 19.5134 23.0895 18.9813C23.0862 18.4493 22.9414 17.9277 22.67 17.47ZM20.94 19.47C20.8524 19.6259 20.7245 19.7555 20.5697 19.8452C20.4149 19.9349 20.2389 19.9815 20.06 19.98H3.94003C3.76114 19.9815 3.58513 19.9349 3.43035 19.8452C3.27557 19.7555 3.14768 19.6259 3.06003 19.47C2.97226 19.318 2.92605 19.1455 2.92605 18.97C2.92605 18.7945 2.97226 18.622 3.06003 18.47L11.06 4.47C11.1439 4.3062 11.2714 4.16873 11.4285 4.07274C11.5855 3.97675 11.766 3.92596 11.95 3.92596C12.1341 3.92596 12.3146 3.97675 12.4716 4.07274C12.6286 4.16873 12.7561 4.3062 12.84 4.47L20.89 18.47C20.9892 18.6198 21.0463 18.7936 21.055 18.9731C21.0638 19.1526 21.0241 19.3312 20.94 19.49V19.47ZM12 8C11.7348 8 11.4805 8.10535 11.2929 8.29289C11.1054 8.48043 11 8.73478 11 9V13C11 13.2652 11.1054 13.5196 11.2929 13.7071C11.4805 13.8946 11.7348 14 12 14C12.2652 14 12.5196 13.8946 12.7071 13.7071C12.8947 13.5196 13 13.2652 13 13V9C13 8.73478 12.8947 8.48043 12.7071 8.29289C12.5196 8.10535 12.2652 8 12 8Z" fill="#2b2b2b"/>
</svg>
