<?xml version="1.0" encoding="iso-8859-1"?>
<!-- Generator: Adobe Illustrator 19.0.0, SVG Export Plug-In . SVG Version: 6.00 Build 0)  -->
<svg version="1.1" id="Layer_1" xmlns="http://www.w3.org/2000/svg" xmlns:xlink="http://www.w3.org/1999/xlink" x="0px" y="0px"
	 viewBox="0 0 512 512" style="enable-background:new 0 0 512 512;" xml:space="preserve">
<path style="fill:#7ACBFF;" d="M450.696,501.801H61.304c-28.224,0-51.105-22.881-51.105-51.105V61.304
	c0-28.224,22.881-51.105,51.105-51.105h389.392c28.223,0,51.104,22.881,51.104,51.105v389.392
	C501.801,478.92,478.92,501.801,450.696,501.801z"/>
<g>
	<path style="fill:#FFF1B8;" d="M213.834,178.952l3.885-13.597l-91.291-91.291l-15.538,5.827c-3.285,3.285-6.336,6.715-9.168,10.261
		l100.456,100.456L213.834,178.952z"/>
	<path style="fill:#FFF1B8;" d="M319.306,307.739l-24.97,16.662c-45.315-29.254-83.454-68.347-111.579-114.371l19.42-19.42
		L101.721,90.154c-38.334,47.991-35.284,118.157,9.168,162.609l148.59,148.59c44.452,44.452,114.618,47.502,162.609,9.168
		L319.306,307.739z"/>
	<path style="fill:#FFF1B8;" d="M432.349,401.353l5.827-15.538l-91.291-91.291l-13.597,3.885l-13.983,9.331l102.782,102.782
		C425.635,407.688,429.065,404.637,432.349,401.353z"/>
</g>
<g>
	<path style="fill:#0B6699;" d="M450.697,0H61.303C27.501,0,0,27.501,0,61.303v389.392C0,484.499,27.501,512,61.303,512h389.392
		C484.499,512,512,484.499,512,450.697V61.303C512,27.501,484.499,0,450.697,0z M491.602,450.697
		c0,22.555-18.349,40.905-40.905,40.905H61.303c-22.556,0-40.905-18.35-40.905-40.905V61.303c0-22.555,18.349-40.905,40.905-40.905
		h389.392c22.557,0,40.906,18.35,40.906,40.905V450.697z"/>
	<path style="fill:#0B6699;" d="M354.098,287.311c-2.619-2.618-6.453-3.614-10.014-2.595l-13.596,3.885
		c-1.016,0.291-1.981,0.736-2.86,1.323l-13.983,9.33c-0.002,0.001-0.004,0.003-0.006,0.004l-19.337,12.903
		c-39.161-26.378-73.028-60.962-98.588-100.667l13.669-13.669c0.002-0.002,0.003-0.003,0.005-0.005l11.658-11.657
		c1.225-1.226,2.118-2.744,2.595-4.41l3.885-13.597c1.018-3.562,0.023-7.394-2.595-10.014l-91.292-91.29
		c-2.827-2.827-7.046-3.741-10.794-2.338l-15.538,5.827c-1.363,0.511-2.601,1.309-3.631,2.338c-3.472,3.473-6.812,7.21-9.925,11.108
		c-42.09,52.695-37.823,128.439,9.925,176.186l148.59,148.59c25.76,25.76,59.659,38.865,93.699,38.863
		c29.058-0.002,58.221-9.555,82.487-28.937c3.898-3.114,7.635-6.453,11.108-9.925c1.029-1.03,1.827-2.267,2.338-3.631l5.828-15.538
		c1.404-3.745,0.49-7.966-2.338-10.794L354.098,287.311z M343.917,305.978l82.404,82.402l-2.728,7.273
		c-0.33,0.318-0.663,0.634-0.999,0.949l-87.283-87.284l2.312-1.543L343.917,305.978z M123.86,85.921l82.403,82.403l-1.509,5.285
		l-2.576,2.576l-86.539-86.539c0.314-0.336,0.631-0.668,0.949-0.998L123.86,85.921z M266.692,394.141L118.102,245.55
		c-37.655-37.654-43.353-95.881-15.115-139.707l84.767,84.767l-12.208,12.208c-3.331,3.331-3.947,8.51-1.491,12.53
		c28.75,47.046,68.431,87.718,114.751,117.621c3.416,2.203,7.81,2.17,11.194-0.085l18.012-12.02l88.389,88.389
		C362.57,437.494,304.345,431.797,266.692,394.141z"/>
	<path style="fill:#0B6699;" d="M471.203,253.96c-5.632,0-10.199,4.566-10.199,10.199v5.1c0,5.633,4.567,10.199,10.199,10.199
		c5.632,0,10.199-4.566,10.199-10.199v-5.1C481.402,258.526,476.835,253.96,471.203,253.96z"/>
	<path style="fill:#0B6699;" d="M471.203,53.036c-5.632,0-10.199,4.566-10.199,10.199v162.167c0,5.633,4.567,10.199,10.199,10.199
		c5.632,0,10.199-4.566,10.199-10.199V63.235C481.402,57.602,476.835,53.036,471.203,53.036z"/>
</g>
<g>
</g>
<g>
</g>
<g>
</g>
<g>
</g>
<g>
</g>
<g>
</g>
<g>
</g>
<g>
</g>
<g>
</g>
<g>
</g>
<g>
</g>
<g>
</g>
<g>
</g>
<g>
</g>
<g>
</g>
</svg>
