<?xml version="1.0" encoding="iso-8859-1"?>
<!-- Generator: Adobe Illustrator 19.0.0, SVG Export Plug-In . SVG Version: 6.00 Build 0)  -->
<svg xmlns="http://www.w3.org/2000/svg" xmlns:xlink="http://www.w3.org/1999/xlink" version="1.1" id="Layer_1" x="0px" y="0px" viewBox="0 0 441.275 441.275" style="enable-background:new 0 0 441.275 441.275;" xml:space="preserve" width="512" height="512">
<g>
	<g>
		<path style="fill:#9B6121;" d="M363.5,251.84l-0.5-18.69c-6.94,3.12-14.39,4.69-21.85,4.69c-6.32,0-12.65-1.13-18.69-3.39    l-3.46-1.3l-1.01,18.9l-1.43,26.83l12.78,76.94h22.1l12.79-76.94L363.5,251.84z"/>
		<path style="fill:#EAB932;" d="M139,213.4v141.75H20v-144h117.884H139V213.4z"/>
		<rect x="266.013" y="300.647" style="fill:#EAB932;" width="143.67" height="15"/>
		<rect x="266.013" y="327.147" style="fill:#EAB932;" width="143.67" height="15"/>
		<polygon style="fill:#FFD039;" points="399.11,308.15 399.11,289.87 411.89,278.88 424.68,289.87 424.68,355.82 399.11,355.82       "/>
		<polygon style="fill:#FFD039;" points="377.01,308.15 377.01,355.82 351.44,355.82 351.44,308.15 351.44,289.87 364.23,278.88     377.01,289.87   "/>
		<polygon style="fill:#FFD039;" points="303.77,308.15 303.77,289.87 316.56,278.88 329.34,289.87 329.34,308.15 329.34,355.82     303.77,355.82   "/>
		<polygon style="fill:#FFD039;" points="281.68,308.15 281.68,355.82 256.11,355.82 256.11,289.87 268.89,278.88 281.68,289.87       "/>
		<path style="fill:#0FBC30;" d="M422.23,148.59v24.72c0,22.6-9.16,43.06-23.97,57.87c-6.61,6.61-14.34,12.09-22.88,16.13    c-3.81,1.81-7.77,3.32-11.88,4.53l-0.5-18.69c-6.94,3.12-14.39,4.69-21.85,4.69c-6.32,0-12.65-1.13-18.69-3.39l-3.46-1.3    l-1.01,18.9c-34.3-9.75-59.43-41.31-59.43-78.74v-24.72c0-12.52,2.81-24.39,7.84-35c13.12-27.69,41.32-46.84,74-46.84    C385.59,66.75,422.23,103.39,422.23,148.59z"/>
		<path style="fill:#07A521;" d="M383.23,187.59v24.72c0,12.52-2.81,24.39-7.85,35c-3.81,1.81-7.77,3.32-11.88,4.53l-0.5-18.69    c-6.94,3.12-14.39,4.69-21.85,4.69c-6.32,0-12.65-1.13-18.69-3.39l-3.46-1.3l-1.01,18.9c-34.3-9.75-59.43-41.31-59.43-78.74    v-24.72c0-12.52,2.81-24.39,7.84-35c10.61-5.03,22.48-7.84,35-7.84C346.59,105.75,383.23,142.39,383.23,187.59z"/>
		<polygon style="fill:#FFD039;" points="222.77,221.15 222.77,355.15 196.77,355.15 159,355.15 133,355.15 133,223.244 133,221.15       "/>
		<rect x="159" y="269.31" style="fill:#ED2E2E;" width="37.77" height="85.84"/>
		<rect x="185" y="269.31" style="fill:#D82525;" width="11.77" height="85.84"/>
		<polygon style="fill:#D82525;" points="184.36,152.42 127.66,152.42 127.65,152.41 77,152.42 52.41,152.42 0,227.15 20,227.15     131.94,227.15 133,227.15 196.54,219.8 236.77,227.15 199.54,195.8   "/>
		<polygon style="fill:#ED2E2E;" points="184.36,152.42 236.77,227.15 222.77,227.15 133,227.15 131.94,227.15   "/>
		<rect x="50" y="269.15" style="fill:#3B9DFF;" width="55.08" height="45"/>
		<polygon style="fill:#999999;" points="104,124.79 112.04,152.3 104,189.79 77,189.79 77,156.06 77,124.79 103.21,124.79   "/>
		<g>
			<circle style="fill:#ED2E2E;" cx="377" cy="202.15" r="7.5"/>
			<circle style="fill:#ED2E2E;" cx="295" cy="210.15" r="7.5"/>
			<circle style="fill:#ED2E2E;" cx="304" cy="141.15" r="7.5"/>
			<circle style="fill:#ED2E2E;" cx="339" cy="169.15" r="7.5"/>
			<circle style="fill:#ED2E2E;" cx="379" cy="132.15" r="7.5"/>
			<circle style="fill:#ED2E2E;" cx="340" cy="102.15" r="7.5"/>
		</g>
		<polygon style="fill:#CCCCCC;" points="130.21,124.79 130.21,152.42 130.2,152.42 127.65,156.05 104,189.79 104,124.79   "/>
	</g>
	<g>
		<path style="fill:#0FBC30;" d="M441.275,374.525H1.795c0-4.43,1.13-8.59,3.12-12.22c1.17-2.14,2.64-4.09,4.35-5.8    c4.61-4.62,10.99-7.47,18.03-7.47h388.48c9.65,0,18.05,5.36,22.38,13.27C440.145,365.935,441.275,370.095,441.275,374.525z"/>
		<path style="fill:#07A521;" d="M441.275,374.525H1.795c0-4.43,1.13-8.59,3.12-12.22h433.24    C440.145,365.935,441.275,370.095,441.275,374.525z"/>
	</g>
</g>















</svg>
